<svg class="main-svg" xmlns="http://www.w3.org/2000/svg" xmlns:xlink="http://www.w3.org/1999/xlink" width="1200" height="600" style="" viewBox="0 0 1200 600"><rect x="0" y="0" width="1200" height="600" style="fill: rgb(255, 255, 255); fill-opacity: 1;"/><defs id="defs-a94658"><g class="clips"><clipPath id="clipa94658xyplot" class="plotclip"><rect width="1152" height="519"/></clipPath><clipPath class="axesclip" id="clipa94658x"><rect x="48" y="0" width="1152" height="600"/></clipPath><clipPath class="axesclip" id="clipa94658y"><rect x="0" y="0" width="1200" height="519"/></clipPath><clipPath class="axesclip" id="clipa94658xy"><rect x="48" y="0" width="1152" height="519"/></clipPath></g><g class="gradients"/><g class="patterns"/></defs><g class="bglayer"/><g class="layer-below"><g class="imagelayer"/><g class="shapelayer"/></g><g class="cartesianlayer"><g class="subplot xy"><g class="layer-subplot"><g class="shapelayer"/><g class="imagelayer"/></g><g class="gridlayer"><g class="x"><path class="xgrid crisp" transform="translate(275.37,0)" d="M0,0v519" style="stroke: rgb(232, 236, 240); stroke-opacity: 1; stroke-width: 1px;"/><path class="xgrid crisp" transform="translate(441.38,0)" d="M0,0v519" style="stroke: rgb(232, 236, 240); stroke-opacity: 1; stroke-width: 1px;"/><path class="xgrid crisp" transform="translate(607.4,0)" d="M0,0v519" style="stroke: rgb(232, 236, 240); stroke-opacity: 1; stroke-width: 1px;"/><path class="xgrid crisp" transform="translate(773.41,0)" d="M0,0v519" style="stroke: rgb(232, 236, 240); stroke-opacity: 1; stroke-width: 1px;"/><path class="xgrid crisp" transform="translate(939.43,0)" d="M0,0v519" style="stroke: rgb(232, 236, 240); stroke-opacity: 1; stroke-width: 1px;"/><path class="xgrid crisp" transform="translate(1105.45,0)" d="M0,0v519" style="stroke: rgb(232, 236, 240); stroke-opacity: 1; stroke-width: 1px;"/></g><g class="y"><path class="ygrid crisp" transform="translate(0,490.12)" d="M48,0h1152" style="stroke: rgb(232, 236, 240); stroke-opacity: 1; stroke-width: 1px;"/><path class="ygrid crisp" transform="translate(0,437.69)" d="M48,0h1152" style="stroke: rgb(232, 236, 240); stroke-opacity: 1; stroke-width: 1px;"/><path class="ygrid crisp" transform="translate(0,385.26)" d="M48,0h1152" style="stroke: rgb(232, 236, 240); stroke-opacity: 1; stroke-width: 1px;"/><path class="ygrid crisp" transform="translate(0,332.82)" d="M48,0h1152" style="stroke: rgb(232, 236, 240); stroke-opacity: 1; stroke-width: 1px;"/><path class="ygrid crisp" transform="translate(0,280.39)" d="M48,0h1152" style="stroke: rgb(232, 236, 240); stroke-opacity: 1; stroke-width: 1px;"/><path class="ygrid crisp" transform="translate(0,227.96)" d="M48,0h1152" style="stroke: rgb(232, 236, 240); stroke-opacity: 1; stroke-width: 1px;"/><path class="ygrid crisp" transform="translate(0,175.53)" d="M48,0h1152" style="stroke: rgb(232, 236, 240); stroke-opacity: 1; stroke-width: 1px;"/><path class="ygrid crisp" transform="translate(0,123.09)" d="M48,0h1152" style="stroke: rgb(232, 236, 240); stroke-opacity: 1; stroke-width: 1px;"/><path class="ygrid crisp" transform="translate(0,70.66)" d="M48,0h1152" style="stroke: rgb(232, 236, 240); stroke-opacity: 1; stroke-width: 1px;"/><path class="ygrid crisp" transform="translate(0,18.23)" d="M48,0h1152" style="stroke: rgb(232, 236, 240); stroke-opacity: 1; stroke-width: 1px;"/></g></g><g class="zerolinelayer"><path class="xzl zl crisp" transform="translate(109.35,0)" d="M0,0v519" style="stroke: rgb(68, 68, 68); stroke-opacity: 1; stroke-width: 1px;"/></g><path class="xlines-below"/><path class="ylines-below"/><g class="overlines-below"/><g class="xaxislayer-below"/><g class="yaxislayer-below"/><g class="overaxes-below"/><g class="plot" transform="translate(48,0)" clip-path="url(#clipa94658xyplot)"><g class="scatterlayer mlayer"><g class="trace scatter trace66d14e" style="stroke-miterlimit: 2; opacity: 1;"><g class="fills"/><g class="errorbars"/><g class="lines"><path class="js-line" style="vector-effect: non-scaling-stroke; fill: none; stroke: rgb(34, 114, 180); stroke-opacity: 1; stroke-width: 2px; opacity: 1;" d="M61.35,489.3L94.55,442.6L127.76,390.17L160.96,376.24L194.16,326.27L227.37,263.19L260.57,223.86L293.77,210.75L326.98,145.21L360.18,137.02L393.38,127.19L426.59,108.35L459.79,91.14L492.99,82.95L526.2,69.84L559.4,73.12L592.6,52.64L625.8,48.54L659.01,51.82L692.21,48.54L725.41,41.99L758.62,72.3L791.82,35.43L825.02,55.1L858.23,41.17L891.43,46.9L924.63,36.25L957.84,51L991.04,31.34L1024.24,29.7L1057.45,32.16L1090.65,31.34"/></g><g class="points"><path class="point" transform="translate(61.35,489.3)" style="opacity: 1; stroke-width: 0px; fill: rgb(34, 114, 180); fill-opacity: 1;" d="M3,0A3,3 0 1,1 0,-3A3,3 0 0,1 3,0Z"/><path class="point" transform="translate(94.55,442.6)" style="opacity: 1; stroke-width: 0px; fill: rgb(34, 114, 180); fill-opacity: 1;" d="M3,0A3,3 0 1,1 0,-3A3,3 0 0,1 3,0Z"/><path class="point" transform="translate(127.76,390.17)" style="opacity: 1; stroke-width: 0px; fill: rgb(34, 114, 180); fill-opacity: 1;" d="M3,0A3,3 0 1,1 0,-3A3,3 0 0,1 3,0Z"/><path class="point" transform="translate(160.96,376.24)" style="opacity: 1; stroke-width: 0px; fill: rgb(34, 114, 180); fill-opacity: 1;" d="M3,0A3,3 0 1,1 0,-3A3,3 0 0,1 3,0Z"/><path class="point" transform="translate(194.16,326.27)" style="opacity: 1; stroke-width: 0px; fill: rgb(34, 114, 180); fill-opacity: 1;" d="M3,0A3,3 0 1,1 0,-3A3,3 0 0,1 3,0Z"/><path class="point" transform="translate(227.37,263.19)" style="opacity: 1; stroke-width: 0px; fill: rgb(34, 114, 180); fill-opacity: 1;" d="M3,0A3,3 0 1,1 0,-3A3,3 0 0,1 3,0Z"/><path class="point" transform="translate(260.57,223.86)" style="opacity: 1; stroke-width: 0px; fill: rgb(34, 114, 180); fill-opacity: 1;" d="M3,0A3,3 0 1,1 0,-3A3,3 0 0,1 3,0Z"/><path class="point" transform="translate(293.77,210.75)" style="opacity: 1; stroke-width: 0px; fill: rgb(34, 114, 180); fill-opacity: 1;" d="M3,0A3,3 0 1,1 0,-3A3,3 0 0,1 3,0Z"/><path class="point" transform="translate(326.98,145.21)" style="opacity: 1; stroke-width: 0px; fill: rgb(34, 114, 180); fill-opacity: 1;" d="M3,0A3,3 0 1,1 0,-3A3,3 0 0,1 3,0Z"/><path class="point" transform="translate(360.18,137.02)" style="opacity: 1; stroke-width: 0px; fill: rgb(34, 114, 180); fill-opacity: 1;" d="M3,0A3,3 0 1,1 0,-3A3,3 0 0,1 3,0Z"/><path class="point" transform="translate(393.38,127.19)" style="opacity: 1; stroke-width: 0px; fill: rgb(34, 114, 180); fill-opacity: 1;" d="M3,0A3,3 0 1,1 0,-3A3,3 0 0,1 3,0Z"/><path class="point" transform="translate(426.59,108.35)" style="opacity: 1; stroke-width: 0px; fill: rgb(34, 114, 180); fill-opacity: 1;" d="M3,0A3,3 0 1,1 0,-3A3,3 0 0,1 3,0Z"/><path class="point" transform="translate(459.79,91.14)" style="opacity: 1; stroke-width: 0px; fill: rgb(34, 114, 180); fill-opacity: 1;" d="M3,0A3,3 0 1,1 0,-3A3,3 0 0,1 3,0Z"/><path class="point" transform="translate(492.99,82.95)" style="opacity: 1; stroke-width: 0px; fill: rgb(34, 114, 180); fill-opacity: 1;" d="M3,0A3,3 0 1,1 0,-3A3,3 0 0,1 3,0Z"/><path class="point" transform="translate(526.2,69.84)" style="opacity: 1; stroke-width: 0px; fill: rgb(34, 114, 180); fill-opacity: 1;" d="M3,0A3,3 0 1,1 0,-3A3,3 0 0,1 3,0Z"/><path class="point" transform="translate(559.4,73.12)" style="opacity: 1; stroke-width: 0px; fill: rgb(34, 114, 180); fill-opacity: 1;" d="M3,0A3,3 0 1,1 0,-3A3,3 0 0,1 3,0Z"/><path class="point" transform="translate(592.6,52.64)" style="opacity: 1; stroke-width: 0px; fill: rgb(34, 114, 180); fill-opacity: 1;" d="M3,0A3,3 0 1,1 0,-3A3,3 0 0,1 3,0Z"/><path class="point" transform="translate(625.8,48.54)" style="opacity: 1; stroke-width: 0px; fill: rgb(34, 114, 180); fill-opacity: 1;" d="M3,0A3,3 0 1,1 0,-3A3,3 0 0,1 3,0Z"/><path class="point" transform="translate(659.01,51.82)" style="opacity: 1; stroke-width: 0px; fill: rgb(34, 114, 180); fill-opacity: 1;" d="M3,0A3,3 0 1,1 0,-3A3,3 0 0,1 3,0Z"/><path class="point" transform="translate(692.21,48.54)" style="opacity: 1; stroke-width: 0px; fill: rgb(34, 114, 180); fill-opacity: 1;" d="M3,0A3,3 0 1,1 0,-3A3,3 0 0,1 3,0Z"/><path class="point" transform="translate(725.41,41.99)" style="opacity: 1; stroke-width: 0px; fill: rgb(34, 114, 180); fill-opacity: 1;" d="M3,0A3,3 0 1,1 0,-3A3,3 0 0,1 3,0Z"/><path class="point" transform="translate(758.62,72.3)" style="opacity: 1; stroke-width: 0px; fill: rgb(34, 114, 180); fill-opacity: 1;" d="M3,0A3,3 0 1,1 0,-3A3,3 0 0,1 3,0Z"/><path class="point" transform="translate(791.82,35.43)" style="opacity: 1; stroke-width: 0px; fill: rgb(34, 114, 180); fill-opacity: 1;" d="M3,0A3,3 0 1,1 0,-3A3,3 0 0,1 3,0Z"/><path class="point" transform="translate(825.02,55.1)" style="opacity: 1; stroke-width: 0px; fill: rgb(34, 114, 180); fill-opacity: 1;" d="M3,0A3,3 0 1,1 0,-3A3,3 0 0,1 3,0Z"/><path class="point" transform="translate(858.23,41.17)" style="opacity: 1; stroke-width: 0px; fill: rgb(34, 114, 180); fill-opacity: 1;" d="M3,0A3,3 0 1,1 0,-3A3,3 0 0,1 3,0Z"/><path class="point" transform="translate(891.43,46.9)" style="opacity: 1; stroke-width: 0px; fill: rgb(34, 114, 180); fill-opacity: 1;" d="M3,0A3,3 0 1,1 0,-3A3,3 0 0,1 3,0Z"/><path class="point" transform="translate(924.63,36.25)" style="opacity: 1; stroke-width: 0px; fill: rgb(34, 114, 180); fill-opacity: 1;" d="M3,0A3,3 0 1,1 0,-3A3,3 0 0,1 3,0Z"/><path class="point" transform="translate(957.84,51)" style="opacity: 1; stroke-width: 0px; fill: rgb(34, 114, 180); fill-opacity: 1;" d="M3,0A3,3 0 1,1 0,-3A3,3 0 0,1 3,0Z"/><path class="point" transform="translate(991.04,31.34)" style="opacity: 1; stroke-width: 0px; fill: rgb(34, 114, 180); fill-opacity: 1;" d="M3,0A3,3 0 1,1 0,-3A3,3 0 0,1 3,0Z"/><path class="point" transform="translate(1024.24,29.7)" style="opacity: 1; stroke-width: 0px; fill: rgb(34, 114, 180); fill-opacity: 1;" d="M3,0A3,3 0 1,1 0,-3A3,3 0 0,1 3,0Z"/><path class="point" transform="translate(1057.45,32.16)" style="opacity: 1; stroke-width: 0px; fill: rgb(34, 114, 180); fill-opacity: 1;" d="M3,0A3,3 0 1,1 0,-3A3,3 0 0,1 3,0Z"/><path class="point" transform="translate(1090.65,31.34)" style="opacity: 1; stroke-width: 0px; fill: rgb(34, 114, 180); fill-opacity: 1;" d="M3,0A3,3 0 1,1 0,-3A3,3 0 0,1 3,0Z"/></g><g class="text"/></g><g class="trace scatter trace21b16e" style="stroke-miterlimit: 2; opacity: 1;"><g class="fills"/><g class="errorbars"/><g class="lines"><path class="js-line" style="vector-effect: non-scaling-stroke; fill: none; stroke: rgb(34, 114, 180); stroke-opacity: 0.14902; stroke-width: 2px; opacity: 1;" d="M61.35,489.3L94.55,442.6L127.76,390.17L160.96,376.24L194.16,326.27L227.37,263.19L260.57,223.86L293.77,210.75L326.98,145.21L360.18,137.02L393.38,127.19L426.59,108.35L459.79,91.14L492.99,82.95L526.2,69.84L559.4,73.12L592.6,52.64L625.8,48.54L659.01,51.82L692.21,48.54L725.41,41.99L758.62,72.3L791.82,35.43L825.02,55.1L858.23,41.17L891.43,46.9L924.63,36.25L957.84,51L991.04,31.34L1024.24,29.7L1057.45,32.16L1090.65,31.34"/></g><g class="points"/><g class="text"/></g></g></g><g class="overplot"/><path class="xlines-above crisp" style="fill: none;" d="M0,0"/><path class="ylines-above crisp" style="fill: none;" d="M0,0"/><g class="overlines-above"/><g class="xaxislayer-above"><g class="xtick"><text text-anchor="middle" x="0" y="531" style="font-family: TOBESTRIPPEDOpen SansTOBESTRIPPED, verdana, arial, sans-serif; font-size: 11px; fill: rgb(95, 114, 129); fill-opacity: 1; white-space: pre; opacity: 1;" transform="translate(109.35,0)">0</text></g><g class="xtick"><text text-anchor="middle" x="0" y="531" style="font-family: TOBESTRIPPEDOpen SansTOBESTRIPPED, verdana, arial, sans-serif; font-size: 11px; fill: rgb(95, 114, 129); fill-opacity: 1; white-space: pre; opacity: 1;" transform="translate(275.37,0)">5</text></g><g class="xtick"><text text-anchor="middle" x="0" y="531" style="font-family: TOBESTRIPPEDOpen SansTOBESTRIPPED, verdana, arial, sans-serif; font-size: 11px; fill: rgb(95, 114, 129); fill-opacity: 1; white-space: pre; opacity: 1;" transform="translate(441.38,0)">10</text></g><g class="xtick"><text text-anchor="middle" x="0" y="531" style="font-family: TOBESTRIPPEDOpen SansTOBESTRIPPED, verdana, arial, sans-serif; font-size: 11px; fill: rgb(95, 114, 129); fill-opacity: 1; white-space: pre; opacity: 1;" transform="translate(607.4,0)">15</text></g><g class="xtick"><text text-anchor="middle" x="0" y="531" style="font-family: TOBESTRIPPEDOpen SansTOBESTRIPPED, verdana, arial, sans-serif; font-size: 11px; fill: rgb(95, 114, 129); fill-opacity: 1; white-space: pre; opacity: 1;" transform="translate(773.41,0)">20</text></g><g class="xtick"><text text-anchor="middle" x="0" y="531" style="font-family: TOBESTRIPPEDOpen SansTOBESTRIPPED, verdana, arial, sans-serif; font-size: 11px; fill: rgb(95, 114, 129); fill-opacity: 1; white-space: pre; opacity: 1;" transform="translate(939.43,0)">25</text></g><g class="xtick"><text text-anchor="middle" x="0" y="531" style="font-family: TOBESTRIPPEDOpen SansTOBESTRIPPED, verdana, arial, sans-serif; font-size: 11px; fill: rgb(95, 114, 129); fill-opacity: 1; white-space: pre; opacity: 1;" transform="translate(1105.45,0)">30</text></g></g><g class="yaxislayer-above"><g class="ytick"><text text-anchor="end" x="47" y="3.8499999999999996" style="font-family: TOBESTRIPPEDOpen SansTOBESTRIPPED, verdana, arial, sans-serif; font-size: 11px; fill: rgb(95, 114, 129); fill-opacity: 1; white-space: pre; opacity: 1;" transform="translate(0,490.12)">0.1</text></g><g class="ytick"><text text-anchor="end" x="47" y="3.8499999999999996" style="font-family: TOBESTRIPPEDOpen SansTOBESTRIPPED, verdana, arial, sans-serif; font-size: 11px; fill: rgb(95, 114, 129); fill-opacity: 1; white-space: pre; opacity: 1;" transform="translate(0,437.69)">0.2</text></g><g class="ytick"><text text-anchor="end" x="47" y="3.8499999999999996" style="font-family: TOBESTRIPPEDOpen SansTOBESTRIPPED, verdana, arial, sans-serif; font-size: 11px; fill: rgb(95, 114, 129); fill-opacity: 1; white-space: pre; opacity: 1;" transform="translate(0,385.26)">0.3</text></g><g class="ytick"><text text-anchor="end" x="47" y="3.8499999999999996" style="font-family: TOBESTRIPPEDOpen SansTOBESTRIPPED, verdana, arial, sans-serif; font-size: 11px; fill: rgb(95, 114, 129); fill-opacity: 1; white-space: pre; opacity: 1;" transform="translate(0,332.82)">0.4</text></g><g class="ytick"><text text-anchor="end" x="47" y="3.8499999999999996" style="font-family: TOBESTRIPPEDOpen SansTOBESTRIPPED, verdana, arial, sans-serif; font-size: 11px; fill: rgb(95, 114, 129); fill-opacity: 1; white-space: pre; opacity: 1;" transform="translate(0,280.39)">0.5</text></g><g class="ytick"><text text-anchor="end" x="47" y="3.8499999999999996" style="font-family: TOBESTRIPPEDOpen SansTOBESTRIPPED, verdana, arial, sans-serif; font-size: 11px; fill: rgb(95, 114, 129); fill-opacity: 1; white-space: pre; opacity: 1;" transform="translate(0,227.96)">0.6</text></g><g class="ytick"><text text-anchor="end" x="47" y="3.8499999999999996" style="font-family: TOBESTRIPPEDOpen SansTOBESTRIPPED, verdana, arial, sans-serif; font-size: 11px; fill: rgb(95, 114, 129); fill-opacity: 1; white-space: pre; opacity: 1;" transform="translate(0,175.53)">0.7</text></g><g class="ytick"><text text-anchor="end" x="47" y="3.8499999999999996" style="font-family: TOBESTRIPPEDOpen SansTOBESTRIPPED, verdana, arial, sans-serif; font-size: 11px; fill: rgb(95, 114, 129); fill-opacity: 1; white-space: pre; opacity: 1;" transform="translate(0,123.09)">0.8</text></g><g class="ytick"><text text-anchor="end" x="47" y="3.8499999999999996" style="font-family: TOBESTRIPPEDOpen SansTOBESTRIPPED, verdana, arial, sans-serif; font-size: 11px; fill: rgb(95, 114, 129); fill-opacity: 1; white-space: pre; opacity: 1;" transform="translate(0,70.66)">0.9</text></g><g class="ytick"><text text-anchor="end" x="47" y="3.8499999999999996" style="font-family: TOBESTRIPPEDOpen SansTOBESTRIPPED, verdana, arial, sans-serif; font-size: 11px; fill: rgb(95, 114, 129); fill-opacity: 1; white-space: pre; opacity: 1;" transform="translate(0,18.23)">1</text></g></g><g class="overaxes-above"/></g></g><g class="polarlayer"/><g class="ternarylayer"/><g class="geolayer"/><g class="funnelarealayer"/><g class="pielayer"/><g class="iciclelayer"/><g class="treemaplayer"/><g class="sunburstlayer"/><g class="glimages"/><defs id="topdefs-a94658"><g class="clips"/><clipPath id="legenda94658"><rect width="304" height="29" x="0" y="0"/></clipPath></defs><g class="layer-above"><g class="imagelayer"/><g class="shapelayer"/></g><g class="infolayer"><g class="legend" pointer-events="all" transform="translate(48,570.9000000000001)"><rect class="bg" shape-rendering="crispEdges" style="stroke: rgb(68, 68, 68); stroke-opacity: 1; fill: rgb(255, 255, 255); fill-opacity: 1; stroke-width: 0px;" width="304" height="29" x="0" y="0"/><g class="scrollbox" transform="" clip-path="url(#legenda94658)"><g class="groups"><g class="traces" style="opacity: 1;" transform="translate(0,14.5)"><text class="legendtext" text-anchor="start" style="font-family: TOBESTRIPPEDOpen SansTOBESTRIPPED, verdana, arial, sans-serif; font-size: 12px; fill: rgb(17, 23, 28); fill-opacity: 1; white-space: pre;" x="40" y="4.680000000000001">whimsical-sloth-330</text><g class="layers" style="opacity: 1;"><g class="legendfill"/><g class="legendlines"><path class="js-line" d="M5,0h30" style="fill: none; stroke: rgb(34, 114, 180); stroke-opacity: 1; stroke-width: 2px;"/></g><g class="legendsymbols"><g class="legendpoints"><path class="scatterpts" transform="translate(20,0)" style="opacity: 1; stroke-width: 0px; fill: rgb(34, 114, 180); fill-opacity: 1;" d="M3,0A3,3 0 1,1 0,-3A3,3 0 0,1 3,0Z"/></g></g></g><rect class="legendtoggle" style="fill: rgb(0, 0, 0); fill-opacity: 0;" x="0" y="-9.5" width="149.20001220703125" height="19"/></g><g class="traces" style="opacity: 1;" transform="translate(151.70001220703125,14.5)"><text class="legendtext" text-anchor="start" style="font-family: TOBESTRIPPEDOpen SansTOBESTRIPPED, verdana, arial, sans-serif; font-size: 12px; fill: rgb(17, 23, 28); fill-opacity: 1; white-space: pre;" x="40" y="4.680000000000001">whimsical-sloth-330</text><g class="layers" style="opacity: 1;"><g class="legendfill"/><g class="legendlines"><path class="js-line" d="M5,0h30" style="fill: none; stroke: rgb(34, 114, 180); stroke-opacity: 0.14902; stroke-width: 2px;"/></g><g class="legendsymbols"><g class="legendpoints"/></g></g><rect class="legendtoggle" style="fill: rgb(0, 0, 0); fill-opacity: 0;" x="0" y="-9.5" width="149.20001220703125" height="19"/></g></g></g><rect class="scrollbar" rx="20" ry="3" width="0" height="0" style="fill: rgb(128, 139, 164); fill-opacity: 1;" x="0" y="0"/></g><g class="g-gtitle"/><g class="g-xtitle"><text class="xtitle" style="font-family: TOBESTRIPPEDOpen SansTOBESTRIPPED, verdana, arial, sans-serif; font-size: 14px; fill: rgb(17, 23, 28); opacity: 1; font-weight: normal; white-space: pre;" x="624" y="571" text-anchor="middle">Step</text></g><g class="g-ytitle"/></g></svg>